<svg xmlns="http://www.w3.org/2000/svg" width="1600" height="2400" viewBox="0 0 1600 2400" role="img" aria-labelledby="title desc">
  <title id="title">IsolaRail poster</title>
  <desc id="desc">Poster art for the IsolaRail isolated USB hub project.</desc>
  <defs>
    <linearGradient id="posterBg" x1="0" y1="0" x2="1600" y2="2400" gradientUnits="userSpaceOnUse">
      <stop offset="0" stop-color="#f7faf8"/>
      <stop offset=".52" stop-color="#dff2eb"/>
      <stop offset="1" stop-color="#f3e4c7"/>
    </linearGradient>
    <linearGradient id="darkPanel" x1="204" y1="650" x2="1396" y2="1840" gradientUnits="userSpaceOnUse">
      <stop offset="0" stop-color="#17231f"/>
      <stop offset=".56" stop-color="#24443f"/>
      <stop offset="1" stop-color="#0f1413"/>
    </linearGradient>
    <linearGradient id="railGrad" x1="245" y1="830" x2="1380" y2="1590" gradientUnits="userSpaceOnUse">
      <stop offset="0" stop-color="#50e0c2"/>
      <stop offset=".44" stop-color="#78f7ff"/>
      <stop offset="1" stop-color="#f6b94f"/>
    </linearGradient>
  </defs>
  <rect width="1600" height="2400" fill="url(#posterBg)"/>
  <rect x="152" y="164" width="1296" height="2072" rx="58" fill="#fbfffc" stroke="#17231f" stroke-width="10"/>
  <text x="214" y="282" font-family="Inter, IBM Plex Sans, Helvetica, Arial, sans-serif" font-size="58" font-weight="800" fill="#17231f">ISOLATED USB HUB</text>
  <text x="214" y="452" font-family="Inter, IBM Plex Sans, Helvetica, Arial, sans-serif" font-size="176" font-weight="850" fill="#17231f">IsolaRail</text>
  <text x="220" y="532" font-family="Inter, IBM Plex Sans, Helvetica, Arial, sans-serif" font-size="40" font-weight="650" fill="#47645f">four controlled ports / measured power rails</text>
  <text x="220" y="588" font-family="Inter, IBM Plex Sans, Helvetica, Arial, sans-serif" font-size="40" font-weight="650" fill="#47645f">visible fault states</text>
  <rect x="214" y="642" width="1172" height="1136" rx="44" fill="url(#darkPanel)"/>
  <g opacity=".22" stroke="#f7faf8" stroke-width="2">
    <path d="M290 760H1320M290 910H1320M290 1060H1320M290 1210H1320M290 1360H1320M290 1510H1320M290 1660H1320"/>
    <path d="M370 720V1700M550 720V1700M730 720V1700M910 720V1700M1090 720V1700M1270 720V1700"/>
  </g>
  <path d="M326 856H982C1144 856 1274 986 1274 1148V1608" fill="none" stroke="url(#railGrad)" stroke-width="88" stroke-linecap="round"/>
  <path d="M1274 1608H618C456 1608 326 1478 326 1316V856" fill="none" stroke="url(#railGrad)" stroke-width="88" stroke-linecap="round"/>
  <path d="M804 750L1064 900V1210C1064 1390 956 1500 804 1578C652 1500 544 1390 544 1210V900L804 750Z" fill="#f7faf8" stroke="#17231f" stroke-width="32" stroke-linejoin="round"/>
  <path d="M804 858L968 954V1198C968 1312 898 1384 804 1434C710 1384 640 1312 640 1198V954L804 858Z" fill="#17231f"/>
  <path d="M742 982H870L804 1138H940L724 1372L792 1202H676L742 982Z" fill="#f6b94f"/>
  <g font-family="Inter, IBM Plex Sans, Helvetica, Arial, sans-serif" font-weight="750">
    <rect x="292" y="1858" width="282" height="164" rx="26" fill="#17231f"/>
    <text x="332" y="1924" font-size="28" fill="#78f7ff">CONTROL</text>
    <text x="332" y="1984" font-size="42" fill="#f7faf8">ESP32-S3</text>
    <rect x="626" y="1858" width="282" height="164" rx="26" fill="#d4f4e9"/>
    <text x="666" y="1924" font-size="28" fill="#20463f">USB HUB</text>
    <text x="666" y="1984" font-size="42" fill="#17231f">CH335F</text>
    <rect x="960" y="1858" width="282" height="164" rx="26" fill="#f6d99b"/>
    <text x="1000" y="1924" font-size="28" fill="#5a4218">DISPLAY</text>
    <text x="1000" y="1984" font-size="42" fill="#17231f">160x50</text>
  </g>
  <text x="214" y="2128" font-family="Inter, IBM Plex Sans, Helvetica, Arial, sans-serif" font-size="40" font-weight="750" fill="#17231f">Hardware evidence and firmware contracts</text>
  <text x="214" y="2186" font-family="Inter, IBM Plex Sans, Helvetica, Arial, sans-serif" font-size="40" font-weight="750" fill="#17231f">stay connected.</text>
</svg>
