<svg xmlns="http://www.w3.org/2000/svg" viewBox="0 0 410 226" width="410" height="226" role="img" aria-label="IsolaRail logo lockup">
  <rect x="52" y="67" width="109" height="10" fill="#050505"/>
  <rect x="52" y="91" width="109" height="10" fill="#050505"/>
  <rect x="250" y="67" width="108" height="10" fill="#050505"/>
  <rect x="250" y="91" width="108" height="10" fill="#050505"/>
  <rect x="189" y="53" width="10" height="62" fill="#ff0050"/>
  <rect x="212" y="53" width="9" height="62" fill="#ff0050"/>
  <g transform="translate(0.000000,226.000000) scale(0.100000,-0.100000)" fill="#050505" stroke="none">
    <path d="M1642 768 l3 -243 35 0 35 0 3 243 2 242 -40 0 -40 0 2 -242z M3353 1002 c-31 -3 -33 -6 -33 -43 0 -39 0 -39 40 -39 40 0 40 0 40 39 0 45 -3 48 -47 43z M3492 768 l3 -243 40 0 40 0 0 240 0 240 -43 3 -42 3 2 -243z M530 757 l0 -233 39 4 39 4 4 121 c2 67 2 170 0 230 l-3 107 -40 0 -39 0 0 -233z M2300 761 l0 -228 37 -6 c20 -4 40 -4 45 -1 4 3 8 41 8 85 l0 79 48 2 c26 1 61 2 79 3 28 2 36 -5 92 -86 l62 -89 44 0 c26 0 45 5 45 11 0 6 -25 45 -56 87 -30 42 -52 77 -47 78 4 1 21 5 36 8 45 10 67 58 67 145 0 70 -1 74 -34 107 l-34 34 -196 0 -196 0 0 -229z m358 143 c16 -11 22 -25 22 -55 0 -77 -3 -79 -155 -79 l-135 0 0 75 0 75 123 0 c95 0 128 -4 145 -16z M735 847 c-20 -16 -28 -35 -32 -69 -5 -42 -3 -50 25 -78 30 -30 31 -30 140 -30 118 0 140 -9 127 -50 -6 -19 -14 -20 -146 -20 l-139 0 0 -41 0 -40 155 3 c154 3 155 3 182 31 23 23 28 36 28 77 0 41 -5 54 -28 77 -26 27 -32 28 -142 31 -102 3 -115 6 -120 23 -4 10 -3 23 0 29 4 6 59 10 136 10 l129 0 0 35 0 35 -144 0 c-136 0 -146 -1 -171 -23z M1197 850 c-37 -29 -50 -80 -45 -174 7 -133 26 -149 189 -154 142 -5 179 8 203 69 20 49 21 168 2 213 -25 59 -45 66 -192 66 -117 0 -134 -2 -157 -20z m260 -58 c13 -8 21 -162 9 -181 -5 -7 -47 -11 -112 -11 -104 0 -105 0 -115 27 -11 29 -2 141 14 161 11 13 183 17 204 4z M1842 838 l3 -33 135 -5 135 -5 3 -27 3 -28 -111 0 c-130 0 -170 -13 -190 -59 -17 -42 -6 -99 25 -130 25 -26 27 -26 190 -27 l165 0 0 144 0 144 -29 29 -29 29 -152 0 -151 0 3 -32z m278 -205 l0 -38 -90 -3 c-116 -5 -130 0 -130 44 l0 34 110 0 110 0 0 -37z M2870 835 l0 -34 133 -3 132 -3 3 -27 3 -26 -125 -4 c-116 -3 -126 -5 -150 -27 -36 -34 -37 -117 -2 -158 l24 -28 157 -3 c103 -2 161 0 168 7 13 13 22 183 13 245 -5 28 -16 54 -33 70 -25 26 -28 26 -174 26 l-149 0 0 -35z m270 -203 l0 -37 -97 -3 c-59 -1 -101 2 -110 9 -14 12 -18 51 -6 62 3 4 53 7 110 7 l103 0 0 -38z M3320 694 l0 -175 38 3 37 3 3 173 2 172 -40 0 -40 0 0 -176z"/>
  </g>
</svg>
